<svg width="1200" height="760" viewBox="0 0 1200 760" fill="none" xmlns="http://www.w3.org/2000/svg">
  <rect width="1200" height="760" rx="40" fill="url(#bg)"/>
  <circle cx="174" cy="178" r="142" fill="#A7F3D0" fill-opacity="0.74"/>
  <circle cx="1040" cy="582" r="170" fill="#FDE68A" fill-opacity="0.68"/>
  <rect x="126" y="100" width="948" height="560" rx="34" fill="white" fill-opacity="0.88"/>
  <path d="M600 252C508 252 432 328 432 420C432 512 508 588 600 588C692 588 768 512 768 420C768 328 692 252 600 252Z" fill="#ECFDF5" stroke="#0F766E" stroke-width="18"/>
  <path d="M600 306C542 336 512 390 512 442C512 500 548 540 600 540C652 540 688 500 688 442C688 390 658 336 600 306Z" fill="url(#leaf)"/>
  <path d="M600 320V524" stroke="white" stroke-width="14" stroke-linecap="round"/>
  <path d="M494 444H706" stroke="#1D4ED8" stroke-width="18" stroke-linecap="round" stroke-opacity="0.4"/>
  <text x="600" y="610" fill="#0F172A" font-family="Arial, sans-serif" font-size="52" font-weight="700" text-anchor="middle">Sustainable Solution</text>
  <defs>
    <linearGradient id="bg" x1="96" y1="76" x2="1108" y2="690" gradientUnits="userSpaceOnUse">
      <stop stop-color="#D1FAE5"/>
      <stop offset="0.5" stop-color="#ECFEFF"/>
      <stop offset="1" stop-color="#FEF3C7"/>
    </linearGradient>
    <linearGradient id="leaf" x1="526" y1="330" x2="690" y2="520" gradientUnits="userSpaceOnUse">
      <stop stop-color="#14B8A6"/>
      <stop offset="1" stop-color="#1D4ED8"/>
    </linearGradient>
  </defs>
</svg>
